<svg width="17" height="16" viewBox="0 0 17 16" fill="none" xmlns="http://www.w3.org/2000/svg">
<path d="M5.44132 0.45459C4.13935 0.45459 2.8907 0.971796 1.97007 1.89243C1.04943 2.81306 0.532227 4.06171 0.532227 5.36368V11.091C0.532227 12.3929 1.04943 13.6416 1.97007 14.5622C2.8907 15.4828 4.13935 16 5.44132 16H11.1686C12.4706 16 13.7192 15.4828 14.6398 14.5622C15.5605 13.6416 16.0777 12.3929 16.0777 11.091V7.00004C16.0777 6.78305 15.9915 6.57494 15.838 6.4215C15.6846 6.26806 15.4765 6.18186 15.2595 6.18186H14.4413C14.2243 6.18186 14.0162 6.09566 13.8628 5.94222C13.7093 5.78878 13.6231 5.58068 13.6231 5.36368C13.6231 4.06171 13.1059 2.81306 12.1853 1.89243C11.2647 0.971796 10.016 0.45459 8.71404 0.45459H5.44132ZM5.44132 4.5455H8.71404C9.16404 4.5455 9.53223 4.91368 9.53223 5.36368C9.53223 5.81368 9.16404 6.18186 8.71404 6.18186H5.44132C4.99132 6.18186 4.62314 5.81368 4.62314 5.36368C4.62314 4.91368 4.99132 4.5455 5.44132 4.5455ZM5.44132 10.2728H11.1686C11.6186 10.2728 11.9868 10.641 11.9868 11.091C11.9868 11.541 11.6186 11.9091 11.1686 11.9091H5.44132C4.99132 11.9091 4.62314 11.541 4.62314 11.091C4.62314 10.641 4.99132 10.2728 5.44132 10.2728Z" fill="#A2783A"/>
</svg>
