<svg width="20" height="17" viewBox="0 0 20 17" fill="none" xmlns="http://www.w3.org/2000/svg">
<path d="M19.6754 2.71187C18.9402 3.03736 18.1602 3.25056 17.3616 3.34432C18.2024 2.84088 18.8316 2.04913 19.1322 1.11642C18.3414 1.58502 17.4769 1.91591 16.5753 2.09496C16.023 1.50452 15.3059 1.09391 14.5171 0.916526C13.7283 0.739139 12.9044 0.803181 12.1525 1.10032C11.4006 1.39747 10.7555 1.91396 10.301 2.58265C9.84661 3.25134 9.60389 4.04129 9.60443 4.84978C9.60443 5.16642 9.63961 5.47323 9.71079 5.76696C8.10839 5.68809 6.54059 5.27246 5.10957 4.54715C3.67855 3.82184 2.41641 2.80313 1.40543 1.55742C1.04623 2.17228 0.85782 2.87195 0.859699 3.58405C0.859699 4.98069 1.56906 6.21451 2.65233 6.93696C2.01248 6.91666 1.38682 6.74327 0.82779 6.43132V6.48287C0.827236 7.41329 1.14887 8.31519 1.73803 9.0353C2.32718 9.75542 3.14752 10.2493 4.05961 10.4331C3.46648 10.5957 2.84389 10.6198 2.23997 10.5034C2.49722 11.3038 2.99805 12.0039 3.67251 12.5059C4.34698 13.0079 5.16138 13.2866 6.00197 13.3032C5.16632 13.9591 4.20951 14.4438 3.18632 14.7295C2.16313 15.0152 1.09364 15.0963 0.0390625 14.9682C1.8804 16.1532 4.02422 16.7824 6.21388 16.7805C13.625 16.7805 17.6782 10.6409 17.6782 5.31614C17.6782 5.14432 17.6717 4.9676 17.6652 4.79496C18.4527 4.22473 19.1333 3.5198 19.6754 2.71269V2.71187Z" fill="#A2783A"/>
</svg>
