<svg width="19" height="19" viewBox="0 0 19 19" fill="none" xmlns="http://www.w3.org/2000/svg">
<path d="M5.43564 0.818359C2.53028 0.818359 0.142822 3.20254 0.142822 6.11118V13.5255C0.142822 16.4309 2.527 18.8184 5.43564 18.8184H12.85C15.7554 18.8184 18.1428 16.4342 18.1428 13.5255V6.112C18.1428 3.20581 15.7586 0.818359 12.85 0.818359H5.43564ZM5.43564 2.45472H12.85C13.3304 2.45408 13.8061 2.54821 14.25 2.73174C14.6939 2.91526 15.0973 3.18457 15.4369 3.52423C15.7766 3.86389 16.0459 4.26724 16.2294 4.71115C16.413 5.15506 16.5071 5.63082 16.5065 6.11118V13.5255C16.5071 14.0059 16.413 14.4817 16.2294 14.9256C16.0459 15.3695 15.7766 15.7728 15.4369 16.1125C15.0973 16.4521 14.6939 16.7215 14.25 16.905C13.8061 17.0885 13.3304 17.1826 12.85 17.182H5.43646C4.95604 17.1827 4.48019 17.0887 4.03618 16.9052C3.59217 16.7217 3.18873 16.4524 2.84898 16.1128C2.50924 15.7731 2.23985 15.3697 2.05628 14.9258C1.8727 14.4818 1.77854 14.006 1.77919 13.5255V6.112C1.77843 5.63157 1.87249 5.15572 2.05597 4.71172C2.23944 4.26771 2.50873 3.86427 2.84841 3.52452C3.18808 3.18477 3.59146 2.91539 4.03542 2.73182C4.47939 2.54824 4.95522 2.45408 5.43564 2.45472ZM13.975 4.2449C13.8775 4.24447 13.7809 4.26335 13.6908 4.30045C13.6007 4.33755 13.5188 4.39213 13.4499 4.46105C13.381 4.52997 13.3264 4.61186 13.2893 4.70199C13.2522 4.79212 13.2333 4.88871 13.2337 4.98618C13.2337 5.39854 13.5626 5.72745 13.975 5.72745C14.0725 5.72799 14.1692 5.70919 14.2594 5.67214C14.3497 5.63509 14.4317 5.58052 14.5007 5.51159C14.5697 5.44266 14.6243 5.36074 14.6615 5.27055C14.6986 5.18037 14.7175 5.08371 14.7171 4.98618C14.7175 4.88864 14.6986 4.79199 14.6615 4.7018C14.6243 4.61162 14.5697 4.52969 14.5007 4.46076C14.4317 4.39183 14.3497 4.33726 14.2594 4.30021C14.1692 4.26316 14.0725 4.24436 13.975 4.2449ZM9.14282 4.90927C6.44282 4.90927 4.23373 7.11836 4.23373 9.81836C4.23373 12.5184 6.44282 14.7275 9.14282 14.7275C11.8428 14.7275 14.0519 12.5184 14.0519 9.81836C14.0519 7.11836 11.8428 4.90927 9.14282 4.90927ZM9.14282 6.54563C10.9616 6.54563 12.4155 7.99954 12.4155 9.81836C12.4155 11.6372 10.9616 13.0911 9.14282 13.0911C7.324 13.0911 5.87009 11.6372 5.87009 9.81836C5.87009 7.99954 7.324 6.54563 9.14282 6.54563Z" fill="#A2783A"/>
</svg>
