<svg width="18" height="19" viewBox="0 0 18 19" fill="none" xmlns="http://www.w3.org/2000/svg">
<path d="M2.79893 0.181641C2.5151 0.181426 2.234 0.237132 1.97171 0.345576C1.70941 0.454019 1.47104 0.613077 1.27023 0.813662C1.06942 1.01425 0.91009 1.25243 0.801348 1.51461C0.692607 1.77678 0.636582 2.05781 0.636475 2.34164C0.636475 3.53619 1.60438 4.52619 2.79647 4.52619C3.9902 4.52619 4.95893 3.53619 4.95893 2.34328C4.95914 2.05948 4.90343 1.77843 4.79498 1.51618C4.68652 1.25393 4.52745 1.01562 4.32686 0.814869C4.12626 0.614121 3.88807 0.45487 3.6259 0.346218C3.36373 0.237565 3.08272 0.181641 2.79893 0.181641ZM13.3469 5.90891C11.5314 5.90891 10.4931 6.85801 9.99402 7.80219H9.94166V6.16337H6.36375V18.1816H10.0922V12.2326C10.0922 10.665 10.21 9.14973 12.1499 9.14973C14.062 9.14973 14.0898 10.9375 14.0898 12.3316V18.1816H17.8183V11.5806C17.8183 8.35037 17.1237 5.90891 13.3469 5.90891ZM0.933475 6.16255V18.1816H4.66438V6.16255H0.933475Z" fill="#A2783A"/>
</svg>
